{"accessors" : [{"bufferView" : 0, "byteOffset" : 0, "componentType" : 5123, "count" : 612, "type" : "SCALAR", "max" : [611], "min" : [0]}, {"bufferView" : 1, "byteOffset" : 0, "componentType" : 5126, "count" : 612, "type" : "VEC3", "max" : [0.5369806289672852, 0.3559575080871582, 0.5569391250610352], "min" : [-0.5525303483009338, -0.32910558581352234, -0.42846477031707764], "name" : "POSITION"}, {"bufferView" : 1, "byteOffset" : 12, "componentType" : 5126, "count" : 612, "type" : "VEC3", "max" : [0.32328683137893677, 0.9463048577308655, 0.0012901619775220752], "min" : [-0.32328683137893677, -0.9463048577308655, -0.0012902281014248729], "name" : "NORMAL"}, {"bufferView" : 1, "byteOffset" : 24, "componentType" : 5126, "count" : 612, "type" : "VEC2", "max" : [0.5691276788711548, 0.632193922996521], "min" : [0.017443429678678513, 0.550216794013977], "name" : "TEXCOORD_0"}, {"bufferView" : 0, "byteOffset" : 1224, "componentType" : 5123, "count" : 3318, "type" : "SCALAR", "max" : [3317], "min" : [0]}, {"bufferView" : 2, "byteOffset" : 0, "componentType" : 5126, "count" : 3318, "type" : "VEC3", "max" : [0.9834707379341125, 0.5350391268730164, 0.9598429203033447], "min" : [-1.0217597484588623, -0.475495308637619, -1.040604829788208], "name" : "POSITION"}, {"bufferView" : 2, "byteOffset" : 12, "componentType" : 5126, "count" : 3318, "type" : "VEC3", "max" : [0.9463056325912476, 0.9463048577308655, 1.0000044107437134], "min" : [-0.9463056325912476, -0.9463048577308655, -1.0000035762786865], "name" : "NORMAL"}, {"bufferView" : 2, "byteOffset" : 24, "componentType" : 5126, "count" : 3318, "type" : "VEC2", "max" : [0.5343787670135498, 0.6480083465576172], "min" : [0.4666251540184021, 0.5616714954376221], "name" : "TEXCOORD_0"}, {"bufferView" : 0, "byteOffset" : 7860, "componentType" : 5123, "count" : 306, "type" : "SCALAR", "max" : [305], "min" : [0]}, {"bufferView" : 3, "byteOffset" : 0, "componentType" : 5126, "count" : 306, "type" : "VEC3", "max" : [0.3061898350715637, 0.25473862886428833, 0.1527038812637329], "min" : [-0.3150012493133545, -0.23374441266059875, -0.3130413293838501], "name" : "POSITION"}, {"bufferView" : 3, "byteOffset" : 12, "componentType" : 5126, "count" : 306, "type" : "VEC3", "max" : [0.32328683137893677, 0.9463048577308655, 0.0012904921313747764], "min" : [-0.32328689098358154, -0.9463048577308655, -0.001290425774641335], "name" : "NORMAL"}, {"bufferView" : 3, "byteOffset" : 24, "componentType" : 5126, "count" : 306, "type" : "VEC2", "max" : [0.5179919600486755, 0.6322348117828369], "min" : [0.492641419172287, 0.5811136960983276], "name" : "TEXCOORD_0"}, {"bufferView" : 4, "byteOffset" : 0, "componentType" : 5126, "normalized" : false, "count" : 2, "type" : "SCALAR", "max" : [0.04166666666666667], "min" : [0]}, {"bufferView" : 4, "byteOffset" : 8, "componentType" : 5126, "normalized" : false, "count" : 2, "type" : "VEC3", "max" : [7.841658592224121, 129.18109130859375, 0.5100727081298828], "min" : [7.841658592224121, 129.18109130859375, 0.5100727081298828]}, {"bufferView" : 5, "byteOffset" : 0, "componentType" : 5126, "normalized" : false, "count" : 2, "type" : "SCALAR", "max" : [0.04166666666666667], "min" : [0]}, {"bufferView" : 5, "byteOffset" : 8, "componentType" : 5126, "normalized" : false, "count" : 2, "type" : "VEC3", "max" : [100, 100, 100], "min" : [100, 100, 100]}, {"bufferView" : 6, "byteOffset" : 0, "componentType" : 5126, "normalized" : false, "count" : 2, "type" : "SCALAR", "max" : [0.04166666666666667], "min" : [0]}, {"bufferView" : 6, "byteOffset" : 8, "componentType" : 5126, "normalized" : false, "count" : 2, "type" : "VEC3", "max" : [7.841658592224121, 129.18109130859375, 0.5100727081298828], "min" : [7.841658592224121, 129.18109130859375, 0.5100727081298828]}, {"bufferView" : 7, "byteOffset" : 0, "componentType" : 5126, "normalized" : false, "count" : 2, "type" : "SCALAR", "max" : [0.04166666666666667], "min" : [0]}, {"bufferView" : 7, "byteOffset" : 8, "componentType" : 5126, "normalized" : false, "count" : 2, "type" : "VEC3", "max" : [100, 100, 100], "min" : [100, 100, 100]}, {"bufferView" : 8, "byteOffset" : 0, "componentType" : 5126, "normalized" : false, "count" : 2, "type" : "SCALAR", "max" : [0.04166666666666667], "min" : [0]}, {"bufferView" : 8, "byteOffset" : 8, "componentType" : 5126, "normalized" : false, "count" : 2, "type" : "VEC3", "max" : [7.841658592224121, 129.18109130859375, 0.5100727081298828], "min" : [7.841658592224121, 129.18109130859375, 0.5100727081298828]}, {"bufferView" : 9, "byteOffset" : 0, "componentType" : 5126, "normalized" : false, "count" : 2, "type" : "SCALAR", "max" : [0.04166666666666667], "min" : [0]}, {"bufferView" : 9, "byteOffset" : 8, "componentType" : 5126, "normalized" : false, "count" : 2, "type" : "VEC3", "max" : [100, 100, 100], "min" : [100, 100, 100]}], "animations" : [{"channels" : [{"sampler" : 0, "target" : {"node" : 0, "path" : "translation"}}, {"sampler" : 1, "target" : {"node" : 0, "path" : "scale"}}], "samplers" : [{"input" : 12, "interpolation" : "LINEAR", "output" : 13}, {"input" : 14, "interpolation" : "LINEAR", "output" : 15}], "name" : "glowpoop|poopAction"}, {"channels" : [{"sampler" : 0, "target" : {"node" : 0, "path" : "translation"}}, {"sampler" : 1, "target" : {"node" : 0, "path" : "scale"}}], "samplers" : [{"input" : 16, "interpolation" : "LINEAR", "output" : 17}, {"input" : 18, "interpolation" : "LINEAR", "output" : 19}], "name" : "glowpoop|poopAction.001"}, {"channels" : [{"sampler" : 0, "target" : {"node" : 0, "path" : "translation"}}, {"sampler" : 1, "target" : {"node" : 0, "path" : "scale"}}], "samplers" : [{"input" : 20, "interpolation" : "LINEAR", "output" : 21}, {"input" : 22, "interpolation" : "LINEAR", "output" : 23}], "name" : "glowpoop|poopAction.002"}], "asset" : {"generator" : "Aspose.3D 24.1.0", "version" : "2.0"}, "buffers" : [{"uri" : "data:application/octet-stream;base64,", "byteLength" : 144256}], "bufferViews" : [{"buffer" : 0, "byteOffset" : 0, "byteLength" : 8472, "target" : 34963}, {"buffer" : 0, "byteOffset" : 8476, "byteLength" : 19584, "byteStride" : 32, "target" : 34962}, {"buffer" : 0, "byteOffset" : 28064, "byteLength" : 106176, "byteStride" : 32, "target" : 34962}, {"buffer" : 0, "byteOffset" : 134244, "byteLength" : 9792, "byteStride" : 32, "target" : 34962}, {"buffer" : 0, "byteOffset" : 144040, "byteLength" : 32}, {"buffer" : 0, "byteOffset" : 144076, "byteLength" : 32}, {"buffer" : 0, "byteOffset" : 144112, "byteLength" : 32}, {"buffer" : 0, "byteOffset" : 144148, "byteLength" : 32}, {"buffer" : 0, "byteOffset" : 144184, "byteLength" : 32}, {"buffer" : 0, "byteOffset" : 144220, "byteLength" : 32}], "images" : [{"uri" : "C:\\Users\\fractilians\\Desktop\\Nat_Work\\__ART_SHOWS\\EthDenver_Hackathon\\blender\\materials\\marbel-04.png"}, {"uri" : "C:\\Users\\fractilians\\Desktop\\Nat_Work\\__ART_SHOWS\\EthDenver_Hackathon\\blender\\materials\\Pallette_Texture_Atlas.png"}], "materials" : [{"name" : "cyberpunk", "pbrMetallicRoughness" : {"baseColorFactor" : [1, 1, 1, 1], "baseColorTexture" : {"index" : 0, "texCoord" : 0}, "metallicFactor" : 1, "roughnessFactor" : 1}, "emissiveFactor" : [0, 0, 0], "alphaMode" : "OPAQUE", "doubleSided" : false}, {"name" : "Material.002", "pbrMetallicRoughness" : {"baseColorFactor" : [0.8000000715255737, 0.2348596453666687, 0.002290870528668165, 1], "metallicFactor" : 1, "roughnessFactor" : 1}, "emissiveFactor" : [0, 0, 0], "alphaMode" : "OPAQUE", "doubleSided" : false}, {"name" : "glow", "pbrMetallicRoughness" : {"baseColorFactor" : [1, 1, 1, 1], "baseColorTexture" : {"index" : 1, "texCoord" : 0}, "metallicFactor" : 1, "roughnessFactor" : 1}, "emissiveFactor" : [0, 0.14883393049240112, 0.3078053891658783], "alphaMode" : "OPAQUE", "doubleSided" : false}], "meshes" : [{"primitives" : [{"attributes" : {"POSITION" : 1, "NORMAL" : 2, "TEXCOORD_0" : 3}, "indices" : 0, "material" : 0, "mode" : 4}, {"attributes" : {"POSITION" : 5, "NORMAL" : 6, "TEXCOORD_0" : 7}, "indices" : 4, "material" : 1, "mode" : 4}, {"attributes" : {"POSITION" : 9, "NORMAL" : 10, "TEXCOORD_0" : 11}, "indices" : 8, "material" : 2, "mode" : 4}], "name" : "Cylinder.004"}], "nodes" : [{"mesh" : 0, "rotation" : [-0.0006363602666652134, 0.1638574516185889, 0.00010570106371645724, 0.9864838160973336], "scale" : [99.99999999999999, 99.99999999999999, 100.00000000000001], "translation" : [7.841658592224121, 129.18109130859375, 0.5100727081298828], "name" : "glowpoop"}], "samplers" : [{"magFilter" : 9729, "minFilter" : 9729, "wrapS" : 10497, "wrapT" : 10497}, {"magFilter" : 9729, "minFilter" : 9729, "wrapS" : 10497, "wrapT" : 10497}], "scene" : 0, "scenes" : [{"nodes" : [0]}], "textures" : [{"sampler" : 0, "source" : 0, "name" : "base_color_texture"}, {"sampler" : 1, "source" : 1, "name" : "base_color_texture"}]}